<!-- <svg width="140" height="33" fill="none" xmlns="http://www.w3.org/2000/svg"><rect y="8.8" width="26.88" height="19.2" rx="9.6" fill="#F6B141"/><rect x="14.02" y="6.5" width="20.92" height="14.2" rx="7.1" stroke="#F6B141" stroke-width="5"/><path d="M61.332 24.117h11.827V28H55.29v-2.836l11.602-16.71H55.306V4.54H72.9v2.772L61.332 24.117zm14.003-4.995c0-1.73.333-3.271.999-4.625.666-1.353 1.622-2.4 2.868-3.142 1.257-.741 2.713-1.112 4.367-1.112 2.352 0 4.27.72 5.752 2.16 1.493 1.439 2.326 3.394 2.498 5.865l.032 1.192c0 2.675-.746 4.823-2.24 6.445-1.493 1.612-3.496 2.417-6.01 2.417s-4.522-.805-6.026-2.417c-1.493-1.611-2.24-3.803-2.24-6.574v-.21zm4.657.338c0 1.654.311 2.922.934 3.803.623.87 1.515 1.305 2.675 1.305 1.128 0 2.009-.43 2.643-1.29.633-.87.95-2.255.95-4.156 0-1.622-.317-2.88-.95-3.77-.634-.893-1.526-1.338-2.675-1.338-1.139 0-2.02.446-2.643 1.337-.623.88-.934 2.25-.934 4.109zM100.134 28h-4.673V3.25h4.673V28zm14.454 0c-.215-.419-.371-.94-.467-1.563-1.128 1.257-2.595 1.885-4.399 1.885-1.708 0-3.126-.494-4.254-1.482-1.117-.988-1.676-2.235-1.676-3.738 0-1.848.682-3.266 2.046-4.254 1.375-.989 3.357-1.488 5.946-1.499h2.143v-.999c0-.806-.209-1.45-.628-1.934-.408-.483-1.058-.725-1.95-.725-.784 0-1.402.188-1.853.564-.44.376-.661.892-.661 1.547h-4.656c0-1.01.311-1.944.934-2.803.623-.86 1.504-1.531 2.643-2.015 1.139-.494 2.417-.74 3.835-.74 2.148 0 3.851.542 5.108 1.627 1.267 1.074 1.901 2.588 1.901 4.544v7.557c.011 1.654.242 2.905.693 3.754V28h-4.705zm-3.851-3.239a4.07 4.07 0 0 0 1.901-.45c.58-.313 1.01-.726 1.289-1.242v-2.997h-1.74c-2.331 0-3.572.806-3.722 2.417l-.016.274c0 .58.204 1.058.612 1.434.408.376.967.564 1.676.564zm16.226-14.196l.145 2.015c1.246-1.558 2.917-2.337 5.012-2.337 1.847 0 3.222.543 4.125 1.628.902 1.085 1.364 2.707 1.385 4.866V28h-4.656V16.85c0-.989-.215-1.703-.645-2.144-.43-.45-1.144-.676-2.143-.676-1.311 0-2.293.558-2.949 1.676V28h-4.656V10.565h4.382z" fill="#000"/></svg> -->
<svg t="1641799858847" class="icon" viewBox="0 0 1024 1024" version="1.1" xmlns="http://www.w3.org/2000/svg" p-id="10481" width="200" height="200"><path d="M994 300a30 30 0 0 1 30 30c0 48.968-23.592 92.52-60 119.92v0.08c0 40.08-16.04 77.832-45.176 106.304a152.32 152.32 0 0 1-78.688 41.072c1.232 10.768 1.864 21.656 1.864 32.624 0 90.76-44.592 180.088-120 241.776v122.224A30 30 0 0 1 692 1024h-120a30 30 0 0 1-30-30v-39.088A451.68 451.68 0 0 1 452 964c-30.664 0-61.888-3.136-92-9.168v39.168a30 30 0 0 1-30 30h-120a30 30 0 0 1-30-30v-122.256a347.2 347.2 0 0 1-77.12-89.744h-12.88C40.376 782 0 741.624 0 692v-62c0-44.288 32.16-81.208 74.344-88.64 6.736-19.856 16.048-39.448 28.144-59.168L10.296 390a30.008 30.008 0 0 1 0-42.424 208.088 208.088 0 0 1 145.4-61.28 209.368 209.368 0 0 1 131.576 44.24C338.624 310.504 395.168 300 452 300c103.16 0 200.384 33.68 273.76 94.816 48.616 40.512 83.04 89.88 101.248 143.904 33.536-5.648 61.544-29.784 72.28-60.896-6.752 1.152-13.64 1.84-20.664 2.056-1.536 0.08-3.072 0.12-4.624 0.12C824.376 480 784 439.624 784 390s40.376-90 90-90c39.112 0 72.456 25.088 84.84 60 3.328-9.392 5.16-19.488 5.16-30a30 30 0 0 1 30-30zM553.624 435.864a30 30 0 0 1-18.472 57.088A269.632 269.632 0 0 0 452 480c-29.104 0-59.344 4.6-85.152 12.952a30 30 0 1 1-18.48-57.088C380 425.632 416.8 420 452 420c34.904 0 69.096 5.336 101.624 15.864z m120.416 397.264c67.6-50.52 107.96-126.456 107.96-203.128C782 481.12 633.96 360 452 360c-55.104 0-109.76 11.312-158.048 32.72a30 30 0 0 1-32.712-5.568c-51.92-48.832-128.376-54.048-185.2-16.264l86.184 86.184a30 30 0 0 1 3.256 38.584c-19.744 27.808-32.528 54.448-39.104 81.44A30 30 0 0 1 97.232 600h-7.232a30.032 30.032 0 0 0-30 30v62a30.032 30.032 0 0 0 30 30h30.416c11.12 0 21.336 6.16 26.528 15.992 19.736 37.376 47.752 70.28 81.016 95.136A30 30 0 0 1 240 857.16V964h60v-47.44a30 30 0 0 1 38.488-28.768c35.944 10.6 75.2 16.208 113.512 16.208 37.536 0 75.056-5.456 111.504-16.208a30 30 0 0 1 38.496 28.768v47.44h60v-106.84a30 30 0 0 1 12.04-24.032zM874 420a30.032 30.032 0 0 0 30-30 30.032 30.032 0 0 0-30-30 30.032 30.032 0 0 0-30 30 30.032 30.032 0 0 0 30 30zM452 0c82.712 0 150 67.288 150 150S534.712 300 452 300s-150-67.288-150-150S369.288 0 452 0z m0 240c49.624 0 90-40.376 90-90S501.624 60 452 60s-90 40.376-90 90S402.376 240 452 240zM210 600a30 30 0 1 1 0-60 30 30 0 0 1 0 60z" fill="#8a8a8a" p-id="10482"></path></svg>