<svg t="1641799858847" class="icon" viewBox="0 0 1024 1024" version="1.1" xmlns="http://www.w3.org/2000/svg" p-id="10481" width="200" height="200"><path d="M994 300a30 30 0 0 1 30 30c0 48.968-23.592 92.52-60 119.92v0.08c0 40.08-16.04 77.832-45.176 106.304a152.32 152.32 0 0 1-78.688 41.072c1.232 10.768 1.864 21.656 1.864 32.624 0 90.76-44.592 180.088-120 241.776v122.224A30 30 0 0 1 692 1024h-120a30 30 0 0 1-30-30v-39.088A451.68 451.68 0 0 1 452 964c-30.664 0-61.888-3.136-92-9.168v39.168a30 30 0 0 1-30 30h-120a30 30 0 0 1-30-30v-122.256a347.2 347.2 0 0 1-77.12-89.744h-12.88C40.376 782 0 741.624 0 692v-62c0-44.288 32.16-81.208 74.344-88.64 6.736-19.856 16.048-39.448 28.144-59.168L10.296 390a30.008 30.008 0 0 1 0-42.424 208.088 208.088 0 0 1 145.4-61.28 209.368 209.368 0 0 1 131.576 44.24C338.624 310.504 395.168 300 452 300c103.16 0 200.384 33.68 273.76 94.816 48.616 40.512 83.04 89.88 101.248 143.904 33.536-5.648 61.544-29.784 72.28-60.896-6.752 1.152-13.64 1.84-20.664 2.056-1.536 0.08-3.072 0.12-4.624 0.12C824.376 480 784 439.624 784 390s40.376-90 90-90c39.112 0 72.456 25.088 84.84 60 3.328-9.392 5.16-19.488 5.16-30a30 30 0 0 1 30-30zM553.624 435.864a30 30 0 0 1-18.472 57.088A269.632 269.632 0 0 0 452 480c-29.104 0-59.344 4.6-85.152 12.952a30 30 0 1 1-18.48-57.088C380 425.632 416.8 420 452 420c34.904 0 69.096 5.336 101.624 15.864z m120.416 397.264c67.6-50.52 107.96-126.456 107.96-203.128C782 481.12 633.96 360 452 360c-55.104 0-109.76 11.312-158.048 32.72a30 30 0 0 1-32.712-5.568c-51.92-48.832-128.376-54.048-185.2-16.264l86.184 86.184a30 30 0 0 1 3.256 38.584c-19.744 27.808-32.528 54.448-39.104 81.44A30 30 0 0 1 97.232 600h-7.232a30.032 30.032 0 0 0-30 30v62a30.032 30.032 0 0 0 30 30h30.416c11.12 0 21.336 6.16 26.528 15.992 19.736 37.376 47.752 70.28 81.016 95.136A30 30 0 0 1 240 857.16V964h60v-47.44a30 30 0 0 1 38.488-28.768c35.944 10.6 75.2 16.208 113.512 16.208 37.536 0 75.056-5.456 111.504-16.208a30 30 0 0 1 38.496 28.768v47.44h60v-106.84a30 30 0 0 1 12.04-24.032zM874 420a30.032 30.032 0 0 0 30-30 30.032 30.032 0 0 0-30-30 30.032 30.032 0 0 0-30 30 30.032 30.032 0 0 0 30 30zM452 0c82.712 0 150 67.288 150 150S534.712 300 452 300s-150-67.288-150-150S369.288 0 452 0z m0 240c49.624 0 90-40.376 90-90S501.624 60 452 60s-90 40.376-90 90S402.376 240 452 240zM210 600a30 30 0 1 1 0-60 30 30 0 0 1 0 60z" fill="#8a8a8a" p-id="10482"></path></svg>


