<!-- <svg t="1641799858847" class="icon" viewBox="0 0 1024 1024" version="1.1" xmlns="http://www.w3.org/2000/svg" p-id="10481" width="200" height="200"><path d="M994 300a30 30 0 0 1 30 30c0 48.968-23.592 92.52-60 119.92v0.08c0 40.08-16.04 77.832-45.176 106.304a152.32 152.32 0 0 1-78.688 41.072c1.232 10.768 1.864 21.656 1.864 32.624 0 90.76-44.592 180.088-120 241.776v122.224A30 30 0 0 1 692 1024h-120a30 30 0 0 1-30-30v-39.088A451.68 451.68 0 0 1 452 964c-30.664 0-61.888-3.136-92-9.168v39.168a30 30 0 0 1-30 30h-120a30 30 0 0 1-30-30v-122.256a347.2 347.2 0 0 1-77.12-89.744h-12.88C40.376 782 0 741.624 0 692v-62c0-44.288 32.16-81.208 74.344-88.64 6.736-19.856 16.048-39.448 28.144-59.168L10.296 390a30.008 30.008 0 0 1 0-42.424 208.088 208.088 0 0 1 145.4-61.28 209.368 209.368 0 0 1 131.576 44.24C338.624 310.504 395.168 300 452 300c103.16 0 200.384 33.68 273.76 94.816 48.616 40.512 83.04 89.88 101.248 143.904 33.536-5.648 61.544-29.784 72.28-60.896-6.752 1.152-13.64 1.84-20.664 2.056-1.536 0.08-3.072 0.12-4.624 0.12C824.376 480 784 439.624 784 390s40.376-90 90-90c39.112 0 72.456 25.088 84.84 60 3.328-9.392 5.16-19.488 5.16-30a30 30 0 0 1 30-30zM553.624 435.864a30 30 0 0 1-18.472 57.088A269.632 269.632 0 0 0 452 480c-29.104 0-59.344 4.6-85.152 12.952a30 30 0 1 1-18.48-57.088C380 425.632 416.8 420 452 420c34.904 0 69.096 5.336 101.624 15.864z m120.416 397.264c67.6-50.52 107.96-126.456 107.96-203.128C782 481.12 633.96 360 452 360c-55.104 0-109.76 11.312-158.048 32.72a30 30 0 0 1-32.712-5.568c-51.92-48.832-128.376-54.048-185.2-16.264l86.184 86.184a30 30 0 0 1 3.256 38.584c-19.744 27.808-32.528 54.448-39.104 81.44A30 30 0 0 1 97.232 600h-7.232a30.032 30.032 0 0 0-30 30v62a30.032 30.032 0 0 0 30 30h30.416c11.12 0 21.336 6.16 26.528 15.992 19.736 37.376 47.752 70.28 81.016 95.136A30 30 0 0 1 240 857.16V964h60v-47.44a30 30 0 0 1 38.488-28.768c35.944 10.6 75.2 16.208 113.512 16.208 37.536 0 75.056-5.456 111.504-16.208a30 30 0 0 1 38.496 28.768v47.44h60v-106.84a30 30 0 0 1 12.04-24.032zM874 420a30.032 30.032 0 0 0 30-30 30.032 30.032 0 0 0-30-30 30.032 30.032 0 0 0-30 30 30.032 30.032 0 0 0 30 30zM452 0c82.712 0 150 67.288 150 150S534.712 300 452 300s-150-67.288-150-150S369.288 0 452 0z m0 240c49.624 0 90-40.376 90-90S501.624 60 452 60s-90 40.376-90 90S402.376 240 452 240zM210 600a30 30 0 1 1 0-60 30 30 0 0 1 0 60z" fill="#8a8a8a" p-id="10482"></path></svg> -->


<svg aria-hidden="true" style="position: absolute; width: 0; height: 0; overflow: hidden;" version="1.1" xmlns="http://www.w3.org/2000/svg" xmlns:xlink="http://www.w3.org/1999/xlink">
<defs>
<symbol id="icon-PeaPig" viewBox="0 0 32 32">
<path fill="#8a8a8a" style="fill: var(--color1, #8a8a8a)" d="M31.063 9.375c0.518 0 0.938 0.42 0.938 0.938v0c0 1.53-0.737 2.891-1.875 3.748v0.002c0 1.252-0.501 2.432-1.412 3.322-0.653 0.642-1.492 1.098-2.429 1.279l-0.030 0.005c0.038 0.337 0.058 0.677 0.058 1.020 0 2.836-1.393 5.628-3.75 7.556v3.82c0 0.518-0.42 0.937-0.938 0.937v0h-3.75c-0.518 0-0.938-0.42-0.938-0.938v0-1.221c-0.845 0.18-1.817 0.284-2.812 0.284h-0c-0.958 0-1.934-0.098-2.875-0.287v1.224c0 0.518-0.42 0.938-0.938 0.938v0h-3.75c-0.518 0-0.938-0.42-0.938-0.938v0-3.82c-0.951-0.788-1.752-1.715-2.383-2.756l-0.027-0.048h-0.402c-1.551 0-2.813-1.262-2.813-2.813v-1.938c0-1.384 1.005-2.538 2.323-2.77 0.211-0.62 0.502-1.233 0.88-1.849l-2.881-2.881c-0.17-0.17-0.274-0.404-0.274-0.663s0.105-0.493 0.274-0.663v0c1.163-1.168 2.766-1.897 4.54-1.915l0.003-0c0.026-0 0.057-0.001 0.089-0.001 1.523 0 2.925 0.521 4.037 1.394l-0.014-0.011c1.605-0.626 3.372-0.954 5.148-0.954 3.224 0 6.262 1.053 8.555 2.963 1.519 1.266 2.595 2.809 3.164 4.497 1.048-0.177 1.923-0.931 2.259-1.903-0.211 0.036-0.426 0.057-0.646 0.064-0.048 0.002-0.096 0.004-0.145 0.004-1.551 0-2.813-1.262-2.813-2.813s1.262-2.813 2.813-2.813c1.222 0 2.264 0.784 2.651 1.875 0.104-0.293 0.161-0.609 0.161-0.938 0-0.518 0.42-0.938 0.938-0.938v0zM17.301 13.621c0.38 0.126 0.649 0.477 0.649 0.892 0 0.518-0.42 0.938-0.938 0.938-0.103 0-0.202-0.017-0.295-0.047l0.007 0.002c-0.771-0.257-1.658-0.405-2.58-0.405-0.006 0-0.013 0-0.019 0h0.001c-0.909 0-1.854 0.144-2.661 0.405-0.086 0.029-0.186 0.046-0.289 0.046-0.518 0-0.938-0.42-0.938-0.938 0-0.415 0.269-0.766 0.642-0.89l0.007-0.002c0.989-0.32 2.139-0.496 3.239-0.496 1.091 0 2.159 0.167 3.176 0.496zM21.064 26.035c2.113-1.579 3.374-3.952 3.374-6.348 0-4.652-4.626-8.438-10.313-8.438-1.722 0-3.43 0.354-4.939 1.023-0.112 0.051-0.242 0.081-0.38 0.081-0.249 0-0.475-0.097-0.643-0.255l0 0c-1.623-1.526-4.012-1.689-5.787-0.508l2.693 2.693c0.17 0.17 0.275 0.404 0.275 0.663 0 0.203-0.065 0.392-0.175 0.545l0.002-0.003c-0.617 0.869-1.016 1.702-1.222 2.545-0.103 0.414-0.472 0.716-0.911 0.716h-0.226c-0.518 0.001-0.937 0.42-0.938 0.937v1.938c0.001 0.518 0.42 0.937 0.937 0.938h0.951c0.348 0 0.667 0.192 0.829 0.5 0.617 1.168 1.492 2.196 2.532 2.973 0.229 0.173 0.376 0.445 0.376 0.751 0 0 0 0 0 0v0 3.339h1.875v-1.482c0-0.518 0.42-0.937 0.938-0.937 0.095 0 0.186 0.014 0.272 0.040l-0.007-0.002c1.123 0.331 2.35 0.506 3.547 0.506 1.173 0 2.346-0.171 3.485-0.506 0.079-0.024 0.171-0.038 0.265-0.038 0.518 0 0.937 0.42 0.938 0.937v0 1.483h1.875v-3.339c0-0 0-0 0-0 0-0.306 0.147-0.578 0.374-0.749l0.002-0.002zM27.313 13.125c0.518-0.001 0.937-0.42 0.938-0.937v-0c-0.001-0.518-0.42-0.937-0.937-0.938h-0c-0.518 0.001-0.937 0.42-0.938 0.937v0c0.001 0.518 0.42 0.937 0.937 0.938h0zM14.125 0c2.585 0 4.688 2.103 4.688 4.688s-2.103 4.688-4.688 4.688-4.688-2.103-4.688-4.688 2.103-4.688 4.688-4.688zM14.125 7.5c1.551 0 2.813-1.262 2.813-2.813s-1.262-2.813-2.813-2.813-2.813 1.262-2.813 2.813 1.262 2.813 2.813 2.813zM6.563 18.75c-0.518 0-0.938-0.42-0.938-0.938s0.42-0.938 0.938-0.938v0c0.518 0 0.938 0.42 0.938 0.938s-0.42 0.938-0.938 0.938v0z"></path>
</symbol>
</defs>
</svg>

